<?xml version="1.0" encoding="utf-8"?>
<!-- Generator: Adobe Illustrator 26.5.0, SVG Export Plug-In . SVG Version: 6.00 Build 0)  -->
<svg version="1.1" id="Layer_1" xmlns="http://www.w3.org/2000/svg" xmlns:xlink="http://www.w3.org/1999/xlink" x="0px" y="0px"
	 viewBox="0 0 200 100" style="enable-background:new 0 0 200 100;" xml:space="preserve">
<style type="text/css">
	.st0{fill-rule:evenodd;clip-rule:evenodd;fill:#FFFFFF;}
</style>
<path class="st0" d="M127.4,19.1c-7,0-16.5,0-17.8,0c-0.9,0-1.3,0.5-1.3,0.5l-49,60.8c-0.3,0.4-0.2,0.7,0.3,0.7c1.1,0,5.7,0,7.3,0
	c0.7,0,0.8-0.2,0.9-0.4l10.4-13.4c0,0,0.2-0.2,0.4-0.2c0.2,0,17.5,0,17.5,0s0.3,0,0.2,0.2c-0.1,0.3-2.6,13.1-2.6,13.1
	c0,0.2,0,0.6,0.6,0.6c2.3,0,18.8,0,21.2,0c0.3,0,0.4-0.1,0.5-0.4l11.9-61C127.9,19.7,128.1,19.1,127.4,19.1L127.4,19.1L127.4,19.1
	L127.4,19.1z M97.4,60.8H83.6c0,0-0.1,0-0.1-0.1c-0.1-0.1,0-0.2,0-0.2L101.8,37c0,0,0.1-0.2,0.3-0.2s0.1,0.2,0.1,0.2l-4.6,23.6
	c0,0,0,0.1-0.1,0.1C97.5,60.8,97.4,60.8,97.4,60.8L97.4,60.8L97.4,60.8z"/>
<path class="st0" d="M11.9,73.4c-0.2,0.7,0.2,1.3,1.5,2.4c2.5,2,9.8,6.5,21.5,6.5c21,0,28.7-13.6,26-25.1c-0.7-3.1-4.7-19-5.2-21.3
	c-1.7-6.5,1.5-11.2,7.7-11.2c5.3,0,8.6,2,11.6,3.8c0.5,0.3,0.9,0.5,1.1-0.1c0.1-0.4,1-5.3,1-5.3s0.3-1-1-1.6
	c-1.9-1-6.7-3.7-16.9-3.7c-18.9,0-26.9,12.1-23.6,25.2c1,4.2,5.3,19.9,5.3,22.9c0,1.2,0.6,9.2-9,9.2c-9,0-15.2-6.1-17.2-8.3
	c-0.3-0.4-0.8-0.2-1,0.6C13.6,67.8,11.9,73.4,11.9,73.4L11.9,73.4L11.9,73.4z"/>
<path class="st0" d="M123.4,73.7c-0.2,0.7,0.2,1.3,1.5,2.4c2.5,2,9.3,6.1,20.9,6.1c21,0,28.7-13.6,26-25.1c-0.7-3.1-4.7-19-5.2-21.3
	c-1.7-6.5,1.5-11.2,7.7-11.2c5.3,0,8.6,2,11.6,3.8c0.6,0.3,1,0.5,1.1-0.1c0.1-0.4,1-5.3,1-5.3s0.3-1-1-1.6c-1.9-1-6.7-3.7-16.9-3.7
	c-18.9,0-26.9,12.1-23.6,25.2c1.1,4.2,5.3,19.9,5.3,22.9c0,1.2,0.6,9.2-9.1,9.2c-9,0-14.9-5.9-17-8c-0.5-0.5-1.2-0.3-1.3,0.4
	C124.5,67.8,123.4,73.7,123.4,73.7L123.4,73.7L123.4,73.7z"/>
</svg>
